<?xml version="1.0" encoding="UTF-8"?>
<!-- BMA Favicon: dark blue flame for Burning Math Academy -->
<svg xmlns="http://www.w3.org/2000/svg" viewBox="0 0 32 32">
  <rect width="32" height="32" rx="6" fill="#0d1520"/>
  <!-- Classic flame: teardrop base, flickering tip -->
  <path d="M16 6c0 0-6 6-6 12 0 4 2.5 7 6 8 3.5-1 6-4 6-8 0-6-6-12-6-12z" fill="#1a2d45"/>
  <path d="M16 10c0 0-4 4-4 8 0 2.5 1.5 4.5 4 5 2.5-.5 4-2.5 4-5 0-4-4-8-4-8z" fill="#2d4a6b"/>
  <path d="M16 13c0 0-2 2.5-2 5 0 1.5 1 2.5 2 3 1-.5 2-1.5 2-3 0-2.5-2-5-2-5z" fill="#4a6b8a"/>
</svg>
