<?xml version="1.0" encoding="UTF-8"?>
<!-- BMA Logo Icon  light stroke variant (for dark backgrounds). Same geometry as bma-logo-icon.svg. -->
<svg xmlns="http://www.w3.org/2000/svg" viewBox="0 0 32 40" fill="none" stroke="currentColor" stroke-width="1.5" stroke-linecap="round" stroke-linejoin="round" aria-hidden="true">
  <circle cx="16" cy="14" r="10" fill="#C9A227" opacity="0.9"/>
  <path d="M16 4c5 0 10 3 10 9s-3 9-10 9c-7 0-10-4-10-9S11 4 16 4zm0 18v2l-2 8 2 2 2-2-2-8v-2"/>
  <path d="M10 14a3 3 0 1 1 6 0 3 3 0 1 1-6 0m10 0a3 3 0 1 1 6 0 3 3 0 1 1-6 0" stroke-width="1.3"/>
</svg>
